<?xml version="1.0" standalone="no"?>
<!DOCTYPE svg PUBLIC "-//W3C//DTD SVG 1.1//EN" "http://www.w3.org/Graphics/SVG/1.1/DTD/svg11.dtd" >
<svg xmlns="http://www.w3.org/2000/svg" xmlns:xlink="http://www.w3.org/1999/xlink" version="1.1">
<metadata>
Created by FontForge 20170910 at Mon Apr 30 14:33:25 2007
 By Jimmy Wärting
Copyright 1990 as an unpublished work by Bitstream Inc.  All rights reserved.  Confidential.
</metadata>
<defs>
<font id="FuturaBT-MediumCondensed" horiz-adv-x="500" >
  <font-face 
    font-family="Futura"
    font-weight="500"
    font-stretch="condensed"
    units-per-em="1000"
    panose-1="0 0 0 0 0 0 0 0 0 0"
    ascent="800"
    descent="-200"
    x-height="479"
    cap-height="713"
    bbox="-167 -236 1041 962"
    underline-thickness="59"
    underline-position="-96"
    stemh="78"
    stemv="88"
    unicode-range="U+0020-FB02"
  />
<missing-glyph horiz-adv-x="193" 
 />
    <glyph glyph-name=".notdef" horiz-adv-x="193" 
 />
    <glyph glyph-name="space" unicode=" " horiz-adv-x="193" 
 />
    <glyph glyph-name="exclam" unicode="!" horiz-adv-x="272" 
d="M92 174v539h88v-539h-88zM80 46c0 31 25 56 56 56s55 -25 55 -56s-24 -55 -55 -55s-56 24 -56 55z" />
    <glyph glyph-name="quotedbl" unicode="&#x22;" horiz-adv-x="288" 
d="M103 700v-270h-57v270h57zM242 700v-270h-58v270h58z" />
    <glyph glyph-name="numbersign" unicode="#" horiz-adv-x="769" 
d="M450 711l-81 -230h127l82 230h70l-80 -230h150l-21 -60h-152l-46 -133h161l-21 -60h-162l-81 -229h-71l82 229h-129l-82 -229h-70l81 229h-156l21 60h156l47 133h-167l21 60h168l82 230h71zM475 421h-129l-46 -133h128z" />
    <glyph glyph-name="dollar" unicode="$" horiz-adv-x="385" 
d="M105 142c13 -45 34 -64 71 -64c54 0 84 38 84 103c0 64 -24 92 -78 131c-47 34 -88 55 -108 77c-36 39 -48 80 -48 138c0 98 34 160 102 185v104h40v-96c12 1 23 1 33 1h11v95h40v-101c44 -9 73 -42 100 -101l-79 -40c-10 42 -34 63 -71 63c-54 0 -82 -32 -82 -94
c0 -68 29 -93 81 -129c51 -36 89 -59 106 -79c35 -40 50 -82 50 -139c0 -99 -38 -168 -105 -195v-104h-40v94c-10 -1 -19 -2 -27 -2c-6 0 -11 1 -16 1v-93h-41v100c-48 13 -81 46 -102 101z" />
    <glyph glyph-name="percent" unicode="%" horiz-adv-x="768" 
d="M37 511c0 145 19 208 126 208c106 0 126 -63 126 -208s-19 -208 -126 -208s-126 63 -126 208zM109 511c0 -99 6 -144 54 -144s53 45 53 144s-5 144 -53 144c-49 0 -54 -45 -54 -144zM251 -9h-62l324 731h62zM475 199c0 145 19 207 126 207c106 0 126 -62 126 -207
s-19 -208 -126 -208s-126 63 -126 208zM548 199c0 -99 5 -144 53 -144s54 45 54 144s-6 144 -54 144c-49 0 -53 -45 -53 -144z" />
    <glyph glyph-name="ampersand" unicode="&#x26;" horiz-adv-x="509" 
d="M377 0l-37 60c-44 -46 -89 -68 -139 -68c-93 0 -162 81 -162 193c0 70 34 133 103 203c-42 68 -61 133 -61 186c0 89 57 149 146 149c85 0 149 -62 149 -142c0 -65 -42 -130 -123 -204l106 -172l67 92l66 -47l-87 -119l80 -131h-108zM209 449c53 51 80 92 80 136
c0 38 -24 62 -60 62c-37 0 -61 -26 -61 -71c0 -40 16 -79 41 -127zM296 135l-110 179c-40 -43 -59 -83 -59 -126c0 -64 37 -107 85 -107c30 0 57 18 84 54z" />
    <glyph glyph-name="quoteright" unicode="&#x2019;" horiz-adv-x="206" 
d="M173 734l-91 -250l-49 14l65 259z" />
    <glyph glyph-name="parenleft" unicode="(" horiz-adv-x="273" 
d="M154 -211c-65 163 -97 326 -97 498s32 336 97 499l84 -27c-60 -148 -89 -304 -89 -472s29 -323 89 -471z" />
    <glyph glyph-name="parenright" unicode=")" horiz-adv-x="273" 
d="M118 787c65 -162 98 -327 98 -499s-33 -335 -98 -498l-84 27c60 148 89 303 89 471s-29 324 -89 472z" />
    <glyph glyph-name="asterisk" unicode="*" horiz-adv-x="381" 
d="M167 409v110l-96 -54l-24 41l96 55l-96 56l24 41l96 -55v110h48v-110l95 55l24 -42l-96 -55l96 -55l-24 -41l-95 55v-111h-48z" />
    <glyph glyph-name="plus" unicode="+" horiz-adv-x="833" 
d="M446 596v-269h263v-57h-263v-270h-58v270h-264v57h264v269h58z" />
    <glyph glyph-name="comma" unicode="," horiz-adv-x="193" 
d="M166 96l-91 -251l-49 15l65 259z" />
    <glyph glyph-name="hyphen" unicode="-" horiz-adv-x="273" 
d="M37 200v79h199v-79h-199z" />
    <glyph glyph-name="period" unicode="." horiz-adv-x="193" 
d="M41 45c0 31 24 56 55 56s56 -25 56 -56s-25 -55 -56 -55s-55 24 -55 55z" />
    <glyph glyph-name="slash" unicode="/" horiz-adv-x="277" 
d="M0 -93l206 815h71l-206 -815h-71z" />
    <glyph glyph-name="zero" unicode="0" horiz-adv-x="385" 
d="M31 356c0 130 4 219 23 265c28 70 69 101 139 101s110 -31 138 -101c19 -47 23 -135 23 -265s-4 -217 -23 -264c-28 -70 -68 -101 -138 -101s-111 31 -139 101c-19 46 -23 134 -23 264zM124 357c0 -190 6 -282 69 -282s68 92 68 282c0 191 -5 282 -68 282
s-69 -91 -69 -282z" />
    <glyph glyph-name="one" unicode="1" horiz-adv-x="385" 
d="M158 0v627h-88v86h177v-713h-89z" />
    <glyph glyph-name="two" unicode="2" horiz-adv-x="385" 
d="M16 0l190 378c33 66 50 122 50 168c0 63 -21 93 -65 93c-52 0 -68 -42 -68 -133v-25h-90c-1 12 -1 24 -1 36c0 136 55 205 164 205c96 0 158 -64 158 -176c0 -75 -28 -143 -72 -223l-127 -232h185v-91h-324z" />
    <glyph glyph-name="three" unicode="3" horiz-adv-x="385" 
d="M21 186h84c0 -6 -1 -11 -1 -17c0 -61 26 -92 75 -92c54 0 76 40 76 123c0 102 -19 134 -119 134h-14v78c11 -1 22 -1 31 -1c80 0 94 32 94 129c0 70 -19 104 -61 104c-51 0 -68 -38 -70 -122h-82c-1 10 -1 20 -1 30c0 114 49 170 148 170c107 0 158 -63 158 -194
c0 -91 -27 -141 -85 -154c71 -13 95 -64 95 -163c0 -150 -51 -220 -177 -220c-101 0 -151 58 -151 178v17z" />
    <glyph glyph-name="four" unicode="4" horiz-adv-x="385" 
d="M213 0v194h-193v91l201 428h82v-439h51v-80h-51v-194h-90zM215 274v282l-128 -282h128z" />
    <glyph glyph-name="five" unicode="5" horiz-adv-x="385" 
d="M31 110c30 -22 61 -33 94 -33c84 0 127 58 127 174c0 87 -44 131 -130 131c-28 0 -54 -2 -81 -10l47 341h249v-88h-174l-28 -174c17 3 33 5 46 5c96 0 162 -81 162 -209c0 -162 -77 -256 -205 -256c-46 0 -89 11 -131 34z" />
    <glyph glyph-name="six" unicode="6" horiz-adv-x="385" 
d="M137 406c24 24 50 36 81 36c100 0 134 -71 134 -218c0 -157 -49 -234 -160 -234c-107 0 -159 80 -159 241c0 163 66 305 160 482h105c-71 -124 -126 -226 -161 -307zM121 219c0 -97 21 -143 73 -143c51 0 71 46 71 144s-17 142 -73 142c-52 0 -71 -46 -71 -143z" />
    <glyph glyph-name="seven" unicode="7" horiz-adv-x="385" 
d="M38 0l212 628h-216v85h340l-238 -713h-98z" />
    <glyph glyph-name="eight" unicode="8" horiz-adv-x="385" 
d="M192 424c46 0 61 35 61 111c0 75 -15 109 -61 109c-48 0 -60 -35 -60 -109c0 -76 13 -111 60 -111zM127 213c0 -96 13 -138 65 -138c51 0 65 39 65 129c0 95 -13 139 -65 139c-48 0 -65 -41 -65 -130zM262 387c70 -24 86 -79 86 -180c0 -56 -1 -101 -21 -139
c-26 -49 -74 -77 -135 -77c-48 0 -88 17 -116 49c-38 43 -40 95 -40 167c0 101 17 156 87 180c-67 30 -79 78 -79 163c0 118 44 172 148 172s149 -54 149 -172c0 -85 -12 -133 -79 -163z" />
    <glyph glyph-name="nine" unicode="9" horiz-adv-x="385" 
d="M248 307c-24 -24 -50 -36 -81 -36c-100 0 -134 71 -134 218c0 157 49 234 160 234c107 0 158 -81 158 -242c0 -163 -66 -304 -160 -481h-104c62 109 118 209 161 307zM264 494c0 97 -22 143 -74 143c-51 0 -70 -46 -70 -144s16 -142 72 -142c52 0 72 46 72 143z" />
    <glyph glyph-name="colon" unicode=":" horiz-adv-x="272" 
d="M80 45c0 31 25 56 56 56s55 -25 55 -56s-24 -55 -55 -55s-56 24 -56 55zM80 298c0 31 25 56 56 56s55 -25 55 -56s-24 -55 -55 -55s-56 24 -56 55z" />
    <glyph glyph-name="semicolon" unicode=";" horiz-adv-x="272" 
d="M66 -140l65 259l75 -23l-91 -251zM95 298c0 31 24 56 55 56s56 -25 56 -56s-25 -55 -56 -55s-55 24 -55 55z" />
    <glyph glyph-name="less" unicode="&#x3c;" horiz-adv-x="833" 
d="M704 497l-488 -199l488 -198v-63l-575 236v50l575 236v-62z" />
    <glyph glyph-name="equal" unicode="=" horiz-adv-x="833" 
d="M709 420v-57h-585v57h585zM709 233v-57h-585v57h585z" />
    <glyph glyph-name="greater" unicode="&#x3e;" horiz-adv-x="833" 
d="M704 323v-50l-575 -236v63l488 198l-488 199v62z" />
    <glyph glyph-name="question" unicode="?" horiz-adv-x="274" 
d="M72 46c0 31 25 56 56 56s56 -25 56 -56s-25 -55 -56 -55s-56 24 -56 55zM87 177v211h3c82 0 86 38 86 137c0 83 -7 122 -43 122c-37 0 -45 -32 -46 -104h-80v15c0 115 35 164 128 164c98 0 125 -48 125 -162c0 -157 -8 -229 -88 -231v-152h-85z" />
    <glyph glyph-name="at" unicode="@" horiz-adv-x="1000" 
d="M587 231l29 118c-11 59 -49 93 -101 93c-96 0 -167 -98 -167 -224c0 -72 35 -112 96 -112c65 0 124 49 143 125zM631 412l28 59h54l-69 -277c-4 -16 -6 -29 -6 -39c0 -29 18 -44 54 -44c26 0 65 14 99 43c56 48 93 130 93 220c0 170 -135 288 -349 288
c-109 0 -204 -34 -279 -100c-92 -80 -138 -186 -138 -311c0 -112 38 -196 121 -261c64 -51 157 -82 261 -82c111 0 220 32 308 92l22 -32c-96 -72 -205 -108 -322 -108c-124 0 -227 30 -305 90c-99 76 -148 176 -148 305c0 107 34 203 98 282c94 114 228 175 392 175
c110 0 208 -31 273 -82c84 -65 128 -152 128 -250c0 -112 -43 -204 -120 -266c-45 -36 -98 -55 -152 -55c-64 0 -97 25 -97 76c0 3 1 7 1 11c-33 -57 -84 -87 -145 -87c-100 0 -153 57 -153 162c0 153 104 268 229 268c59 0 100 -26 122 -77z" />
    <glyph glyph-name="A" unicode="A" horiz-adv-x="440" 
d="M8 0l167 713h90l167 -713h-97l-34 140h-163l-33 -140h-97zM220 529l-64 -309h128z" />
    <glyph glyph-name="B" unicode="B" horiz-adv-x="434" 
d="M57 0v713h132c136 0 198 -51 198 -181c0 -92 -27 -143 -96 -165c77 -18 107 -68 107 -162c0 -140 -63 -205 -201 -205h-140zM153 91h32c83 0 116 24 116 115c0 88 -34 122 -115 122h-33v-237zM153 407h35c72 0 105 35 105 111c0 82 -30 110 -105 110h-35v-221z" />
    <glyph glyph-name="C" unicode="C" horiz-adv-x="381" 
d="M359 16c-32 -17 -64 -25 -100 -25c-146 0 -218 119 -218 359c0 247 79 372 229 372c33 0 62 -6 89 -19v-91c-27 13 -52 20 -75 20c-105 0 -147 -92 -147 -281c0 -180 43 -268 137 -268c27 0 54 9 85 27v-94z" />
    <glyph glyph-name="D" unicode="D" horiz-adv-x="495" 
d="M64 0v713h127c195 0 264 -96 264 -356c0 -261 -69 -357 -264 -357h-127zM161 92h50c113 0 147 76 147 266s-34 265 -147 265h-50v-531z" />
    <glyph glyph-name="E" unicode="E" horiz-adv-x="384" 
d="M61 0v713h285v-86h-189v-212h173v-85h-173v-241h189v-89h-285z" />
    <glyph glyph-name="F" unicode="F" horiz-adv-x="384" 
d="M64 0v713h292v-86h-196v-213h180v-85h-180v-329h-96z" />
    <glyph glyph-name="G" unicode="G" horiz-adv-x="490" 
d="M451 383c2 -30 3 -59 3 -85c0 -207 -65 -307 -208 -307c-152 0 -207 116 -207 365c0 251 54 366 210 366c106 0 170 -50 194 -150l-85 -41c-14 69 -49 103 -108 103c-91 0 -114 -87 -114 -276c0 -190 24 -276 114 -276c75 0 112 62 112 183c0 11 0 22 -1 34h-102v84h192z
" />
    <glyph glyph-name="H" unicode="H" horiz-adv-x="492" 
d="M64 0v713h96v-271h172v271h96v-713h-96v352h-172v-352h-96z" />
    <glyph glyph-name="I" unicode="I" horiz-adv-x="225" 
d="M64 0v713h96v-713h-96z" />
    <glyph glyph-name="J" unicode="J" horiz-adv-x="303" 
d="M145 713h96v-529c0 -130 -46 -194 -148 -194c-37 0 -70 11 -102 32v98c30 -25 57 -38 84 -38c49 0 70 32 70 99v532z" />
    <glyph glyph-name="K" unicode="K" horiz-adv-x="435" 
d="M59 0v713h96v-338l168 338h100l-170 -339l170 -374h-103l-165 366v-366h-96z" />
    <glyph glyph-name="L" unicode="L" horiz-adv-x="377" 
d="M64 0v713h96v-624h206v-89h-302z" />
    <glyph glyph-name="M" unicode="M" horiz-adv-x="559" 
d="M35 0l61 713h87l97 -494l99 494h84l62 -713h-89l-29 500l-95 -500h-65l-95 500l-29 -500h-88z" />
    <glyph glyph-name="N" unicode="N" horiz-adv-x="495" 
d="M63 0v713h89l189 -495v495h91v-713h-90l-188 499v-499h-91z" />
    <glyph glyph-name="O" unicode="O" horiz-adv-x="491" 
d="M43 356c0 250 53 366 203 366s202 -116 202 -366c0 -249 -52 -365 -202 -365s-203 115 -203 365zM140 358c0 -188 25 -276 107 -276c85 0 104 89 104 276s-22 275 -105 275s-106 -88 -106 -275z" />
    <glyph glyph-name="P" unicode="P" horiz-adv-x="438" 
d="M64 0v713h117c70 0 122 -6 164 -40s66 -92 66 -161c0 -129 -76 -199 -223 -199c-9 0 -19 0 -28 1v-314h-96zM160 400h36c84 0 119 31 119 116c0 83 -39 113 -126 113h-29v-229z" />
    <glyph glyph-name="Q" unicode="Q" horiz-adv-x="491" 
d="M227 180l57 41l51 -70c14 40 18 112 18 219c0 179 -24 263 -107 263c-85 0 -108 -87 -108 -275c0 -187 25 -275 105 -275c11 0 27 3 47 10zM397 -55l-52 72c-32 -17 -65 -25 -101 -25c-149 0 -201 116 -201 365s53 365 203 365s202 -116 202 -365
c0 -143 -17 -241 -52 -291l58 -80z" />
    <glyph glyph-name="R" unicode="R" horiz-adv-x="435" 
d="M160 348v-348h-96v713h116c149 0 214 -48 214 -186c0 -106 -45 -165 -134 -176l169 -351h-103l-163 348h-3zM160 403h30c83 0 107 37 107 124c0 81 -30 102 -110 102h-27v-226z" />
    <glyph glyph-name="S" unicode="S" horiz-adv-x="385" 
d="M46 125c44 -27 82 -41 117 -41c59 0 96 37 96 94c0 69 -47 101 -117 159c-74 61 -114 114 -114 197c0 110 79 188 178 188c44 0 84 -10 125 -32v-96c-37 26 -72 39 -107 39c-61 0 -100 -39 -100 -98c0 -66 49 -100 120 -157c77 -62 112 -116 112 -199
c0 -107 -75 -188 -186 -188c-40 0 -81 12 -124 36v98z" />
    <glyph glyph-name="T" unicode="T" horiz-adv-x="381" 
d="M142 0v624h-132v89h361v-89h-132v-624h-97z" />
    <glyph glyph-name="U" unicode="U" horiz-adv-x="492" 
d="M58 190v523h95v-531c0 -68 30 -100 93 -100s93 32 93 100v531h95v-523c0 -137 -57 -199 -188 -199s-188 62 -188 199z" />
    <glyph glyph-name="V" unicode="V" horiz-adv-x="414" 
d="M247 0h-81l-156 713h97l100 -484l100 484h97z" />
    <glyph glyph-name="W" unicode="W" horiz-adv-x="603" 
d="M135 0l-120 713h95l69 -488l83 488h79l84 -488l68 488h95l-119 -713h-79l-88 506l-89 -506h-78z" />
    <glyph glyph-name="X" unicode="X" horiz-adv-x="383" 
d="M11 0l131 363l-124 350h96l78 -234l77 234h96l-124 -350l131 -363h-101l-79 248l-80 -248h-101z" />
    <glyph glyph-name="Y" unicode="Y" horiz-adv-x="385" 
d="M241 303v-303h-99v303l-134 410h99l60 -199c7 -23 16 -62 25 -114c6 40 14 77 25 113l60 200h100z" />
    <glyph glyph-name="Z" unicode="Z" horiz-adv-x="383" 
d="M9 0l231 628h-197v85h328l-229 -624h209v-89h-342z" />
    <glyph glyph-name="bracketleft" unicode="[" horiz-adv-x="273" 
d="M69 -187v949h183v-78h-95v-793h95v-78h-183z" />
    <glyph glyph-name="backslash" unicode="\" horiz-adv-x="277" 
d="M206 -93l-206 815h70l206 -815h-70z" />
    <glyph glyph-name="bracketright" unicode="]" horiz-adv-x="273" 
d="M21 -187v78h94v793h-94v78h182v-949h-182z" />
    <glyph glyph-name="asciicircum" unicode="^" horiz-adv-x="1000" 
d="M539 712l254 -272h-77l-216 214l-216 -214h-78l254 272h79z" />
    <glyph glyph-name="underscore" unicode="_" 
d="M500 -178v-58h-500v58h500z" />
    <glyph glyph-name="quoteleft" unicode="&#x2018;" horiz-adv-x="206" 
d="M33 506l91 251l49 -15l-65 -259z" />
    <glyph glyph-name="a" unicode="a" horiz-adv-x="391" 
d="M124 240c0 -112 15 -167 66 -167s66 56 66 167c0 112 -14 166 -66 166s-66 -54 -66 -166zM253 0v47c-24 -38 -54 -56 -95 -56c-80 0 -123 84 -123 249s43 248 123 248c41 0 71 -17 95 -55v46h88v-479h-88z" />
    <glyph glyph-name="b" unicode="b" horiz-adv-x="391" 
d="M50 0v757h88v-325c24 38 54 55 95 55c86 0 123 -82 123 -248s-37 -248 -123 -248c-41 0 -71 18 -95 56v-47h-88zM135 239c0 -111 14 -166 66 -166s66 54 66 166s-14 166 -66 166s-66 -55 -66 -166z" />
    <glyph glyph-name="c" unicode="c" horiz-adv-x="255" 
d="M242 8c-24 -12 -47 -18 -72 -18c-98 0 -141 81 -141 249c0 165 48 249 136 249c27 0 52 -6 77 -19v-84c-16 15 -31 22 -48 22c-51 0 -76 -57 -76 -172c0 -106 24 -158 74 -158c18 0 34 7 50 21v-90z" />
    <glyph glyph-name="d" unicode="d" horiz-adv-x="391" 
d="M253 0v47c-24 -38 -54 -56 -95 -56c-86 0 -123 82 -123 248s37 248 123 248c41 0 71 -17 95 -55v325h88v-757h-88zM124 239c0 -112 14 -166 66 -166s66 55 66 166s-14 166 -66 166s-66 -54 -66 -166z" />
    <glyph glyph-name="e" unicode="e" horiz-adv-x="362" 
d="M327 160v-6c0 -102 -55 -163 -142 -163c-110 0 -155 80 -155 251c0 165 49 246 150 246c110 0 152 -73 152 -237v-28h-219v-14c0 -97 20 -143 71 -143c40 0 60 31 62 94h81zM113 292h134v12c0 76 -18 112 -66 112c-44 0 -68 -42 -68 -124z" />
    <glyph glyph-name="f" unicode="f" horiz-adv-x="218" 
d="M61 0v411h-48v68h48v168c0 76 41 120 103 120c16 0 35 -4 57 -11v-80c-13 4 -24 6 -33 6c-27 0 -38 -15 -38 -48v-155h66v-68h-66v-411h-89z" />
    <glyph glyph-name="g" unicode="g" horiz-adv-x="391" 
d="M341 -11c0 -125 -38 -182 -158 -182c-93 0 -144 49 -144 137v15h84c1 -52 21 -77 61 -77c51 0 69 31 69 98v68c-24 -38 -54 -56 -95 -56c-86 0 -123 82 -123 248s37 248 123 248c41 0 71 -17 95 -55v46h88v-490zM124 240c0 -112 14 -166 66 -166s66 55 66 166
s-14 166 -66 166s-66 -54 -66 -166z" />
    <glyph glyph-name="h" unicode="h" horiz-adv-x="399" 
d="M55 0v757h88v-326c20 35 54 53 100 53c71 0 104 -39 104 -119v-365h-88v322c0 57 -10 84 -57 84c-39 0 -59 -25 -59 -73v-333h-88z" />
    <glyph glyph-name="i" unicode="i" horiz-adv-x="200" 
d="M56 0v479h88v-479h-88zM44 622c0 32 24 57 56 57c31 0 56 -25 56 -57c0 -31 -25 -56 -56 -56c-32 0 -56 24 -56 56z" />
    <glyph glyph-name="j" unicode="j" horiz-adv-x="200" 
d="M56 -193v672h88v-672h-88zM44 622c0 32 24 57 56 57c31 0 56 -25 56 -57c0 -31 -25 -56 -56 -56c-32 0 -56 24 -56 56z" />
    <glyph glyph-name="k" unicode="k" horiz-adv-x="383" 
d="M58 0v757h88v-491l127 213h94l-132 -220l138 -259h-95l-132 252v-252h-88z" />
    <glyph glyph-name="l" unicode="l" horiz-adv-x="200" 
d="M56 0v757h88v-757h-88z" />
    <glyph glyph-name="m" unicode="m" horiz-adv-x="600" 
d="M55 0v479h87v-48c22 35 54 53 98 53c43 0 73 -18 97 -58c26 39 61 58 106 58c71 0 104 -39 104 -119v-365h-88v322c0 57 -10 84 -57 84c-39 0 -59 -25 -59 -73v-333h-87v322c0 57 -11 84 -56 84c-38 0 -57 -25 -57 -73v-333h-88z" />
    <glyph glyph-name="n" unicode="n" horiz-adv-x="399" 
d="M55 0v479h87v-48c23 35 56 53 101 53c71 0 104 -39 104 -119v-365h-88v322c0 57 -10 84 -57 84c-39 0 -59 -25 -59 -73v-333h-88z" />
    <glyph glyph-name="o" unicode="o" horiz-adv-x="383" 
d="M30 240c0 163 57 248 161 248s161 -85 161 -248c0 -164 -57 -249 -161 -249s-161 85 -161 249zM119 241c0 -114 21 -169 72 -169s73 55 73 169s-22 169 -73 169s-72 -55 -72 -169z" />
    <glyph glyph-name="p" unicode="p" horiz-adv-x="391" 
d="M50 -193v672h88v-46c24 38 54 55 95 55c86 0 123 -82 123 -248s-37 -248 -123 -248c-41 0 -71 18 -95 56v-241h-88zM135 240c0 -111 14 -166 66 -166s66 54 66 166s-14 166 -66 166s-66 -55 -66 -166z" />
    <glyph glyph-name="q" unicode="q" horiz-adv-x="391" 
d="M253 -193v240c-24 -38 -54 -56 -95 -56c-86 0 -123 83 -123 249s37 248 123 248c41 0 71 -18 95 -56v47h88v-672h-88zM124 240c0 -112 14 -166 66 -166s66 55 66 166s-14 166 -66 166s-66 -54 -66 -166z" />
    <glyph glyph-name="r" unicode="r" horiz-adv-x="271" 
d="M56 0v479h85v-70c25 53 63 76 116 79v-93h-15c-68 0 -99 -33 -99 -106v-289h-87z" />
    <glyph glyph-name="s" unicode="s" horiz-adv-x="273" 
d="M28 101c24 -21 48 -32 74 -32c38 0 63 25 63 59s-25 54 -58 86c-49 46 -79 81 -79 138c0 80 54 137 133 137c27 0 52 -7 76 -20v-90c-19 22 -41 32 -70 32c-32 0 -56 -23 -56 -55c0 -37 26 -55 60 -87c50 -46 77 -84 77 -144c0 -81 -53 -134 -136 -134
c-27 0 -55 6 -84 18v92z" />
    <glyph glyph-name="t" unicode="t" horiz-adv-x="219" 
d="M60 0v414h-48v65h48v130h88v-130h66v-65h-66v-414h-88z" />
    <glyph glyph-name="u" unicode="u" horiz-adv-x="399" 
d="M53 141v338h88v-343c0 -44 20 -67 58 -67s58 23 58 67v343h89v-338c0 -105 -44 -150 -147 -150s-146 45 -146 150z" />
    <glyph glyph-name="v" unicode="v" horiz-adv-x="328" 
d="M9 479h91l50 -250c5 -26 10 -62 14 -110c6 54 11 90 15 109l49 251h91l-120 -479h-70z" />
    <glyph glyph-name="w" unicode="w" horiz-adv-x="493" 
d="M259 235c-5 29 -9 63 -13 103c-4 -47 -9 -82 -13 -103l-43 -235h-62l-111 479h86l46 -246c5 -29 9 -63 13 -102c4 41 8 75 13 102l43 246h57l44 -246c5 -28 8 -61 12 -102c4 47 9 81 13 102l45 246h87l-112 -479h-62z" />
    <glyph glyph-name="x" unicode="x" horiz-adv-x="327" 
d="M117 254l-94 225h92l48 -138l49 138h91l-93 -225l110 -254h-93l-64 167l-63 -167h-93z" />
    <glyph glyph-name="y" unicode="y" horiz-adv-x="328" 
d="M13 479h91l56 -314l76 314h87l-193 -672h-91l74 235z" />
    <glyph glyph-name="z" unicode="z" horiz-adv-x="330" 
d="M13 0l178 402h-167v77h293l-179 -400h165v-79h-290z" />
    <glyph glyph-name="braceleft" unicode="{" 
d="M419 659c-8 0 -15 1 -22 1c-86 0 -101 -30 -101 -119v-118c0 -96 -16 -142 -97 -164c81 -22 97 -68 97 -164v-118c0 -90 16 -118 104 -118h19v-61h-17c-56 0 -97 5 -128 25c-44 29 -49 77 -49 153v119c0 97 -30 134 -119 134c-7 0 -14 -1 -22 -1v62c8 0 15 -1 22 -1
c89 0 119 37 119 135v119c0 76 4 124 49 153c31 20 71 25 128 25h17v-62z" />
    <glyph glyph-name="bar" unicode="|" 
d="M281 764v-1000h-62v1000h62z" />
    <glyph glyph-name="braceright" unicode="}" 
d="M275 543v-119c0 -98 31 -135 120 -135c7 0 14 1 22 1v-62c-8 0 -15 1 -22 1c-89 0 -120 -37 -120 -135v-118c0 -76 -4 -125 -48 -154c-30 -20 -71 -24 -126 -24h-20v61c8 0 15 -1 22 -1c86 0 101 31 101 120v117c0 96 16 142 97 164c-81 22 -97 68 -97 164v118
c0 90 -16 119 -104 119h-19v61h17c56 0 98 -5 129 -25c44 -29 48 -77 48 -153z" />
    <glyph glyph-name="asciitilde" unicode="~" horiz-adv-x="833" 
d="M747 306c-66 -47 -129 -70 -189 -70c-29 0 -60 6 -93 17c-69 23 -128 50 -190 50c-59 0 -117 -28 -188 -78v65c68 47 131 71 189 71c52 0 97 -16 142 -32c48 -17 91 -36 141 -36c60 0 118 28 188 77v-64z" />
    <glyph glyph-name="exclamdown" unicode="&#xa1;" horiz-adv-x="272" 
d="M92 539h88v-539h-88v539zM80 667c0 31 25 55 56 55s55 -24 55 -55s-24 -56 -55 -56s-56 25 -56 56z" />
    <glyph glyph-name="cent" unicode="&#xa2;" horiz-adv-x="385" 
d="M289 123c-18 -9 -35 -14 -52 -16v-94h-45v95c-83 13 -117 93 -117 247s40 234 117 248v94h45v-94c14 -3 32 -9 52 -19v-83c-16 15 -31 22 -48 22c-51 0 -77 -58 -77 -173c0 -106 24 -158 74 -158c18 0 35 7 51 21v-90z" />
    <glyph glyph-name="sterling" unicode="&#xa3;" horiz-adv-x="385" 
d="M16 30c15 60 45 90 88 90c8 0 16 -1 24 -3c10 20 15 43 15 71c0 25 -5 52 -14 81h-84v43h66c-38 90 -62 162 -62 226c0 115 65 184 169 184c92 0 152 -57 152 -146v-4l-78 -34v7c0 63 -25 95 -75 95c-47 0 -77 -36 -77 -99c0 -53 25 -127 64 -229h91v-43h-81
c6 -23 9 -47 9 -72c0 -38 -7 -70 -24 -97c27 -14 44 -25 58 -25c15 0 29 12 34 36l78 -26c-22 -65 -52 -94 -102 -94c-61 0 -104 46 -138 46c-17 0 -28 -11 -38 -34z" />
    <glyph glyph-name="fraction" unicode="&#x2044;" horiz-adv-x="167" 
d="M-167 -9l433 731h67l-433 -731h-67z" />
    <glyph glyph-name="yen" unicode="&#xa5;" horiz-adv-x="407" 
d="M305 476h97v-37h-110l-28 -84h138v-37h-151l-4 -15v-303h-87v303l-5 15h-149v37h137l-28 84h-109v37h97l-78 237h85l76 -245c9 -30 15 -64 18 -103c2 36 9 71 20 107l74 241h84z" />
    <glyph glyph-name="florin" unicode="&#x192;" horiz-adv-x="385" 
d="M18 -105c8 -2 16 -3 22 -3c23 0 35 13 40 42l73 434h-82l12 62h81l34 198c11 66 43 94 104 94c23 0 46 -3 69 -9l-16 -76c-12 3 -23 4 -31 4c-29 0 -39 -16 -45 -52l-27 -159h89l-10 -62h-89l-77 -461c-12 -70 -36 -100 -104 -100c-15 0 -34 4 -58 12z" />
    <glyph glyph-name="section" unicode="&#xa7;" horiz-adv-x="381" 
d="M47 -3h84v-5c0 -63 19 -95 56 -95s58 28 58 79c0 57 -31 78 -87 114c-80 51 -124 90 -124 186c0 77 31 134 90 167c-45 32 -67 76 -67 132c0 89 55 147 137 147c87 0 141 -57 141 -160c0 -6 -1 -12 -1 -19h-84v5c0 64 -17 96 -53 96c-34 0 -54 -24 -54 -64
c0 -70 48 -85 105 -124c70 -48 102 -101 102 -182c0 -78 -30 -129 -90 -155c50 -43 72 -83 72 -139c0 -99 -56 -161 -144 -161c-94 0 -141 57 -141 171v7zM127 283c0 -66 27 -103 67 -103c43 0 63 34 63 104c0 62 -26 97 -63 97c-39 0 -67 -36 -67 -98z" />
    <glyph glyph-name="currency" unicode="&#xa4;" horiz-adv-x="606" 
d="M178 592c38 29 78 44 125 44s89 -15 127 -44l100 101l35 -36l-100 -100c28 -37 42 -79 42 -125s-14 -88 -42 -125l100 -100l-35 -36l-100 101c-37 -29 -79 -43 -127 -43s-88 14 -125 43l-101 -101l-35 36l101 100c-28 37 -43 79 -43 125s15 88 43 125l-101 100l35 36z
M457 433c0 84 -68 153 -153 153s-153 -69 -153 -153c0 -85 68 -154 153 -154s153 70 153 154z" />
    <glyph glyph-name="quotesingle" unicode="'" horiz-adv-x="149" 
d="M103 700v-270h-57v270h57z" />
    <glyph glyph-name="quotedblleft" unicode="&#x201c;" horiz-adv-x="328" 
d="M154 506l91 251l49 -15l-65 -259zM33 506l91 251l49 -15l-65 -259z" />
    <glyph glyph-name="guillemotleft" unicode="&#xab;" horiz-adv-x="352" 
d="M162 239l116 213l55 -31l-99 -182l99 -182l-55 -30zM19 239l115 213l56 -31l-100 -182l100 -182l-56 -30z" />
    <glyph glyph-name="guilsinglleft" unicode="&#x2039;" horiz-adv-x="230" 
d="M29 239l116 213l55 -31l-99 -182l99 -182l-55 -30z" />
    <glyph glyph-name="guilsinglright" unicode="&#x203a;" horiz-adv-x="230" 
d="M200 239l-115 -212l-56 30l100 182l-100 182l56 31z" />
    <glyph glyph-name="fi" unicode="&#xfb01;" horiz-adv-x="410" 
d="M61 0v411h-48v68h48v168c0 76 41 120 103 120c16 0 35 -4 57 -11v-80c-13 4 -24 6 -33 6c-27 0 -38 -15 -38 -48v-155h66v-68h-66v-411h-89zM266 0v479h88v-479h-88zM254 622c0 32 24 57 56 57c31 0 56 -25 56 -57c0 -31 -25 -56 -56 -56c-32 0 -56 24 -56 56z" />
    <glyph glyph-name="fl" unicode="&#xfb02;" horiz-adv-x="410" 
d="M61 0v411h-48v68h48v168c0 76 41 120 103 120c16 0 35 -4 57 -11v-80c-13 4 -24 6 -33 6c-27 0 -38 -15 -38 -48v-155h66v-68h-66v-411h-89zM266 0v757h88v-757h-88z" />
    <glyph glyph-name="endash" unicode="&#x2013;" 
d="M0 210v59h500v-59h-500z" />
    <glyph glyph-name="dagger" unicode="&#x2020;" horiz-adv-x="381" 
d="M145 -197v599h-132v84h132v227h92v-227h131v-84h-131v-599h-92z" />
    <glyph glyph-name="daggerdbl" unicode="&#x2021;" horiz-adv-x="381" 
d="M233 -197h-85v217h-135v80h135v319h-135v80h135v214h85v-214h135v-80h-135v-319h135v-80h-135v-217z" />
    <glyph glyph-name="periodcentered" unicode="&#xb7;" horiz-adv-x="193" 
d="M41 356c0 31 24 56 55 56s56 -25 56 -56s-25 -55 -56 -55s-55 24 -55 55z" />
    <glyph glyph-name="paragraph" unicode="&#xb6;" 
d="M463 684h-61v-684h-46v684h-90v-684h-46v382c-114 5 -183 73 -183 170c0 100 74 170 192 170h234v-38z" />
    <glyph glyph-name="bullet" unicode="&#x2022;" horiz-adv-x="590" 
d="M150 372c0 80 65 144 145 144c79 0 144 -64 144 -144c0 -79 -65 -145 -145 -145s-144 65 -144 145z" />
    <glyph glyph-name="quotesinglbase" unicode="&#x201a;" horiz-adv-x="206" 
d="M173 96l-91 -251l-49 15l65 259z" />
    <glyph glyph-name="quotedblbase" unicode="&#x201e;" horiz-adv-x="328" 
d="M173 96l-91 -251l-49 15l65 259zM294 96l-91 -251l-49 15l65 259z" />
    <glyph glyph-name="quotedblright" unicode="&#x201d;" horiz-adv-x="328" 
d="M294 734l-91 -250l-49 14l65 259zM173 734l-91 -250l-49 14l65 259z" />
    <glyph glyph-name="guillemotright" unicode="&#xbb;" horiz-adv-x="352" 
d="M190 239l-116 -212l-55 30l99 182l-99 182l55 31zM333 239l-115 -212l-56 30l100 182l-100 182l56 31z" />
    <glyph glyph-name="ellipsis" unicode="&#x2026;" horiz-adv-x="1000" 
d="M111 45c0 31 24 56 55 56s56 -25 56 -56s-25 -55 -56 -55s-55 24 -55 55zM444 45c0 31 24 56 55 56s56 -25 56 -56s-25 -55 -56 -55s-55 24 -55 55zM778 45c0 31 24 56 55 56s56 -25 56 -56s-25 -55 -56 -55s-55 24 -55 55z" />
    <glyph glyph-name="perthousand" unicode="&#x2030;" horiz-adv-x="1078" 
d="M37 511c0 145 19 208 126 208c106 0 126 -63 126 -208s-19 -208 -126 -208s-126 63 -126 208zM109 511c0 -99 6 -144 54 -144s53 45 53 144s-5 144 -53 144c-49 0 -54 -45 -54 -144zM251 -9h-62l324 731h62zM475 199c0 145 19 207 126 207c106 0 126 -62 126 -207
s-19 -208 -126 -208s-126 63 -126 208zM548 199c0 -99 5 -144 53 -144s54 45 54 144s-6 144 -54 144c-49 0 -53 -45 -53 -144zM789 199c0 145 19 207 126 207c106 0 126 -62 126 -207s-19 -208 -126 -208s-126 63 -126 208zM862 199c0 -99 5 -144 53 -144s54 45 54 144
s-6 144 -54 144c-49 0 -53 -45 -53 -144z" />
    <glyph glyph-name="questiondown" unicode="&#xbf;" horiz-adv-x="274" 
d="M186 536v-211h-3c-82 0 -86 -39 -86 -138c0 -83 7 -121 43 -121c37 0 46 31 46 103h80v-15c0 -115 -35 -164 -128 -164c-98 0 -125 49 -125 163c0 157 8 228 88 230v153h85zM201 666c0 -31 -25 -55 -56 -55s-55 24 -55 55s24 56 55 56s56 -25 56 -56z" />
    <glyph glyph-name="grave" unicode="`" 
d="M308 544h-51l-116 169h87z" />
    <glyph glyph-name="acute" unicode="&#xb4;" 
d="M192 544l80 169h87l-116 -169h-51z" />
    <glyph glyph-name="circumflex" unicode="&#x2c6;" 
d="M134 543l74 170h84l74 -170h-51l-65 103l-65 -103h-51z" />
    <glyph glyph-name="tilde" unicode="&#x2dc;" 
d="M367 682c-12 -74 -35 -110 -77 -110c-9 0 -18 2 -27 5l-33 12c-10 4 -18 5 -24 5c-18 0 -28 -11 -34 -33h-39c10 72 35 107 75 107c9 0 21 -3 33 -7l34 -12c7 -2 12 -3 18 -3c19 0 30 12 35 36h39z" />
    <glyph glyph-name="macron" unicode="&#xaf;" 
d="M142 587v72h216v-72h-216z" />
    <glyph glyph-name="breve" unicode="&#x2d8;" 
d="M134 700h47c2 -48 23 -71 69 -71s68 22 69 71h47c-4 -96 -42 -143 -116 -143s-111 47 -116 143z" />
    <glyph glyph-name="dotaccent" unicode="&#x2d9;" 
d="M197 624c0 28 26 54 54 54c30 0 55 -24 55 -54s-24 -55 -55 -55c-29 0 -54 26 -54 55z" />
    <glyph glyph-name="dieresis" unicode="&#xa8;" 
d="M271 622c0 29 24 53 52 53c29 0 53 -24 53 -53s-24 -52 -53 -52s-52 23 -52 52zM123 622c0 29 24 53 52 53c29 0 53 -24 53 -53s-24 -52 -53 -52s-52 23 -52 52z" />
    <glyph glyph-name="ring" unicode="&#x2da;" 
d="M187 659c0 -35 29 -63 64 -63c36 0 64 27 64 63s-28 65 -64 65s-64 -29 -64 -65zM126 660c0 69 55 125 125 125s125 -55 125 -125c0 -69 -56 -125 -125 -125c-68 0 -125 57 -125 125z" />
    <glyph glyph-name="cedilla" unicode="&#xb8;" 
d="M138 -212v58c41 -14 74 -21 99 -21c29 0 44 13 44 37c0 28 -18 39 -57 39c-5 0 -11 -1 -17 -1v100h42v-46h6c61 0 93 -32 93 -91c0 -62 -36 -96 -101 -96c-27 0 -64 6 -109 21z" />
    <glyph glyph-name="hungarumlaut" unicode="&#x2dd;" 
d="M209 713h85l-94 -169h-47zM335 713h90l-112 -169h-48z" />
    <glyph glyph-name="ogonek" unicode="&#x2db;" 
d="M295 0c-35 -35 -52 -67 -52 -105c0 -27 10 -38 35 -38h34v-76h-39c-62 0 -94 30 -94 85c0 44 25 86 76 134h40z" />
    <glyph glyph-name="caron" unicode="&#x2c7;" 
d="M134 713h51l65 -102l65 102h51l-74 -170h-84z" />
    <glyph glyph-name="emdash" unicode="&#x2014;" horiz-adv-x="1000" 
d="M0 210v59h1000v-59h-1000z" />
    <glyph glyph-name="AE" unicode="&#xc6;" horiz-adv-x="587" 
d="M8 0l170 713h268l19 -86h-168l44 -212h152l16 -85h-151l48 -239h168l17 -91h-256l-29 140h-168l-33 -140h-97zM226 557l-70 -337h135z" />
    <glyph glyph-name="ordfeminine" unicode="&#xaa;" horiz-adv-x="293" 
d="M93 546c0 -78 11 -117 50 -117c38 0 49 39 49 117s-10 116 -49 116s-50 -38 -50 -116zM190 378v33c-18 -27 -41 -39 -71 -39c-60 0 -93 58 -93 174c0 115 33 174 93 174c30 0 53 -12 71 -39v32h66v-335h-66z" />
    <glyph glyph-name="Lslash" unicode="&#x141;" horiz-adv-x="377" 
d="M66 0v310l-66 -47v85l66 47v318h96v-270l110 76v-85l-110 -76v-269h206v-89h-302z" />
    <glyph glyph-name="Oslash" unicode="&#xd8;" horiz-adv-x="491" 
d="M57 -9l-37 21l55 95c-24 77 -32 159 -32 250c0 249 53 365 203 365c62 0 107 -22 144 -69l38 66l37 -21l-50 -88c24 -63 33 -145 33 -247c0 -253 -50 -371 -202 -371c-64 0 -110 22 -147 72zM158 166c15 -55 44 -82 89 -82c85 0 104 88 104 274c0 50 -2 95 -6 134z
M333 555c-15 52 -43 77 -87 77c-83 0 -106 -87 -106 -274c0 -45 2 -88 6 -129z" />
    <glyph glyph-name="OE" unicode="&#x152;" horiz-adv-x="655" 
d="M617 714v-86h-189v-213h173v-85h-173v-241h189v-89h-263v60c-28 -44 -70 -68 -123 -68c-136 0 -188 119 -188 365c0 247 52 365 192 365c54 0 90 -23 119 -72v64h263zM138 358c0 -187 23 -274 102 -274c82 0 101 88 101 274c0 187 -22 274 -102 274s-101 -87 -101 -274z
" />
    <glyph glyph-name="ordmasculine" unicode="&#xba;" horiz-adv-x="287" 
d="M23 546c0 114 42 174 120 174s121 -60 121 -174c0 -115 -43 -174 -121 -174s-120 59 -120 174zM89 547c0 -80 16 -119 54 -119c39 0 55 39 55 119c0 79 -16 118 -55 118c-38 0 -54 -39 -54 -118z" />
    <glyph glyph-name="ae" unicode="&#xe6;" horiz-adv-x="552" 
d="M519 160v-6c0 -102 -55 -161 -142 -161c-58 0 -95 22 -121 77c-20 -50 -56 -77 -106 -77c-78 0 -125 61 -125 168c0 97 48 153 122 153c30 0 56 -10 79 -29v37c0 61 -23 93 -76 93c-27 0 -57 -13 -89 -32v83c34 15 67 22 101 22c48 0 82 -20 104 -60c27 41 60 60 106 60
c110 0 152 -73 152 -237v-28h-219v-13c0 -97 21 -143 71 -143c39 0 60 31 62 93h81zM305 292h134v12c0 76 -18 111 -66 111c-43 0 -68 -37 -68 -110v-13zM171 248c-38 0 -62 -34 -62 -90c0 -58 23 -91 62 -91s59 34 59 99c0 52 -23 82 -59 82z" />
    <glyph glyph-name="dotlessi" unicode="&#x131;" horiz-adv-x="200" 
d="M56 0v479h88v-479h-88z" />
    <glyph glyph-name="lslash" unicode="&#x142;" horiz-adv-x="209" 
d="M60 0v326l-60 -43v66l60 42v366h89v-323l60 42v-65l-60 -42v-369h-89z" />
    <glyph glyph-name="oslash" unicode="&#xf8;" horiz-adv-x="383" 
d="M56 -11l23 54c-37 48 -49 112 -49 197c0 165 57 249 163 249c31 0 56 -7 76 -21l21 46l33 -15l-25 -57c35 -40 54 -107 54 -202c0 -164 -57 -250 -158 -250c-34 0 -62 7 -86 24l-18 -40zM144 98c12 -18 26 -27 47 -27c50 0 73 56 73 170c0 38 -3 72 -11 103zM235 389
c-11 15 -25 21 -44 21c-51 0 -72 -55 -72 -169c0 -37 2 -69 7 -96z" />
    <glyph glyph-name="oe" unicode="&#x153;" horiz-adv-x="587" 
d="M113 241c0 -116 22 -175 73 -175s73 59 73 175s-22 174 -73 174s-73 -59 -73 -174zM556 160v-6c0 -102 -55 -163 -142 -163c-54 0 -89 18 -113 59c-25 -40 -61 -59 -112 -59c-102 0 -158 85 -158 248s56 248 158 248c49 0 85 -18 110 -57c24 40 60 59 110 59
c110 0 152 -74 152 -238v-28h-219v-13c0 -97 21 -144 71 -144c39 0 60 32 62 94h81zM342 292h134v12c0 76 -18 111 -66 111c-43 0 -68 -37 -68 -110v-13z" />
    <glyph glyph-name="germandbls" unicode="&#xdf;" horiz-adv-x="380" 
d="M52 0v616c0 93 47 144 136 144c106 0 137 -55 137 -180c0 -74 -12 -110 -71 -129c82 -11 91 -75 91 -219c0 -171 -24 -236 -140 -236h-16v78c60 2 66 42 66 142c0 138 -2 195 -71 195h-6v71c50 2 63 30 63 97c0 71 -8 103 -51 103c-34 0 -51 -23 -51 -68v-614h-87z" />
    <glyph glyph-name="Aacute" unicode="&#xc1;" horiz-adv-x="440" 
d="M8 0l167 713h90l167 -713h-97l-34 140h-163l-33 -140h-97zM220 529l-64 -309h128zM162 778l80 169h87l-116 -169h-51z" />
    <glyph glyph-name="Acircumflex" unicode="&#xc2;" horiz-adv-x="440" 
d="M8 0l167 713h90l167 -713h-97l-34 140h-163l-33 -140h-97zM220 529l-64 -309h128zM104 777l74 170h84l74 -170h-51l-65 103l-65 -103h-51z" />
    <glyph glyph-name="Adieresis" unicode="&#xc4;" horiz-adv-x="440" 
d="M8 0l167 713h90l167 -713h-97l-34 140h-163l-33 -140h-97zM220 529l-64 -309h128zM241 856c0 29 24 53 52 53c29 0 53 -24 53 -53s-24 -52 -53 -52s-52 23 -52 52zM93 856c0 29 24 53 52 53c29 0 53 -24 53 -53s-24 -52 -53 -52s-52 23 -52 52z" />
    <glyph glyph-name="Agrave" unicode="&#xc0;" horiz-adv-x="440" 
d="M8 0l167 713h90l167 -713h-97l-34 140h-163l-33 -140h-97zM220 529l-64 -309h128zM278 778h-51l-116 169h87z" />
    <glyph glyph-name="Aring" unicode="&#xc5;" horiz-adv-x="440" 
d="M8 0l167 713h90l167 -713h-97l-34 140h-163l-33 -140h-97zM220 529l-64 -309h128zM168 853c0 -29 24 -53 53 -53s53 24 53 53c0 30 -23 53 -53 53s-53 -23 -53 -53zM111 853c0 61 48 109 109 109s110 -48 110 -109s-49 -109 -110 -109c-60 0 -109 49 -109 109z" />
    <glyph glyph-name="Atilde" unicode="&#xc3;" horiz-adv-x="440" 
d="M8 0l167 713h90l167 -713h-97l-34 140h-163l-33 -140h-97zM220 529l-64 -309h128zM337 916c-12 -74 -35 -110 -77 -110c-9 0 -18 2 -27 5l-33 12c-10 4 -18 5 -24 5c-18 0 -28 -11 -34 -33h-39c10 72 35 107 75 107c9 0 21 -3 33 -7l34 -12c7 -2 12 -3 18 -3
c19 0 30 12 35 36h39z" />
    <glyph glyph-name="Ccedilla" unicode="&#xc7;" horiz-adv-x="381" 
d="M359 16c-32 -17 -64 -25 -100 -25c-146 0 -218 119 -218 359c0 247 79 372 229 372c33 0 62 -6 89 -19v-91c-27 13 -52 20 -75 20c-105 0 -147 -92 -147 -281c0 -180 43 -268 137 -268c27 0 54 9 85 27v-94zM125 -212v58c41 -14 74 -21 99 -21c29 0 44 13 44 37
c0 28 -18 39 -57 39c-5 0 -11 -1 -17 -1v100h42v-46h6c61 0 93 -32 93 -91c0 -62 -36 -96 -101 -96c-27 0 -64 6 -109 21z" />
    <glyph glyph-name="Eacute" unicode="&#xc9;" horiz-adv-x="384" 
d="M61 0v713h285v-86h-189v-212h173v-85h-173v-241h189v-89h-285zM144 778l80 169h87l-116 -169h-51z" />
    <glyph glyph-name="Ecircumflex" unicode="&#xca;" horiz-adv-x="384" 
d="M61 0v713h285v-86h-189v-212h173v-85h-173v-241h189v-89h-285zM86 777l74 170h84l74 -170h-51l-65 103l-65 -103h-51z" />
    <glyph glyph-name="Edieresis" unicode="&#xcb;" horiz-adv-x="384" 
d="M61 0v713h285v-86h-189v-212h173v-85h-173v-241h189v-89h-285zM223 856c0 29 24 53 52 53c29 0 53 -24 53 -53s-24 -52 -53 -52s-52 23 -52 52zM75 856c0 29 24 53 52 53c29 0 53 -24 53 -53s-24 -52 -53 -52s-52 23 -52 52z" />
    <glyph glyph-name="Egrave" unicode="&#xc8;" horiz-adv-x="384" 
d="M61 0v713h285v-86h-189v-212h173v-85h-173v-241h189v-89h-285zM260 778h-51l-116 169h87z" />
    <glyph glyph-name="Iacute" unicode="&#xcd;" horiz-adv-x="225" 
d="M64 0v713h96v-713h-96zM55 778l80 169h87l-116 -169h-51z" />
    <glyph glyph-name="Icircumflex" unicode="&#xce;" horiz-adv-x="225" 
d="M64 0v713h96v-713h-96zM-3 777l74 170h84l74 -170h-51l-65 103l-65 -103h-51z" />
    <glyph glyph-name="Idieresis" unicode="&#xcf;" horiz-adv-x="225" 
d="M64 0v713h96v-713h-96zM134 856c0 29 24 53 52 53c29 0 53 -24 53 -53s-24 -52 -53 -52s-52 23 -52 52zM-14 856c0 29 24 53 52 53c29 0 53 -24 53 -53s-24 -52 -53 -52s-52 23 -52 52z" />
    <glyph glyph-name="Igrave" unicode="&#xcc;" horiz-adv-x="225" 
d="M64 0v713h96v-713h-96zM171 778h-51l-116 169h87z" />
    <glyph glyph-name="Ntilde" unicode="&#xd1;" horiz-adv-x="495" 
d="M63 0v713h89l189 -495v495h91v-713h-90l-188 499v-499h-91zM367 916c-12 -74 -35 -110 -77 -110c-9 0 -18 2 -27 5l-33 12c-10 4 -18 5 -24 5c-18 0 -28 -11 -34 -33h-39c10 72 35 107 75 107c9 0 21 -3 33 -7l34 -12c7 -2 12 -3 18 -3c19 0 30 12 35 36h39z" />
    <glyph glyph-name="Oacute" unicode="&#xd3;" horiz-adv-x="491" 
d="M43 356c0 250 53 366 203 366s202 -116 202 -366c0 -249 -52 -365 -202 -365s-203 115 -203 365zM140 358c0 -188 25 -276 107 -276c85 0 104 89 104 276s-22 275 -105 275s-106 -88 -106 -275zM188 778l80 169h87l-116 -169h-51z" />
    <glyph glyph-name="Ocircumflex" unicode="&#xd4;" horiz-adv-x="491" 
d="M43 356c0 250 53 366 203 366s202 -116 202 -366c0 -249 -52 -365 -202 -365s-203 115 -203 365zM140 358c0 -188 25 -276 107 -276c85 0 104 89 104 276s-22 275 -105 275s-106 -88 -106 -275zM130 777l74 170h84l74 -170h-51l-65 103l-65 -103h-51z" />
    <glyph glyph-name="Odieresis" unicode="&#xd6;" horiz-adv-x="491" 
d="M43 356c0 250 53 366 203 366s202 -116 202 -366c0 -249 -52 -365 -202 -365s-203 115 -203 365zM140 358c0 -188 25 -276 107 -276c85 0 104 89 104 276s-22 275 -105 275s-106 -88 -106 -275zM267 856c0 29 24 53 52 53c29 0 53 -24 53 -53s-24 -52 -53 -52
s-52 23 -52 52zM119 856c0 29 24 53 52 53c29 0 53 -24 53 -53s-24 -52 -53 -52s-52 23 -52 52z" />
    <glyph glyph-name="Ograve" unicode="&#xd2;" horiz-adv-x="491" 
d="M43 356c0 250 53 366 203 366s202 -116 202 -366c0 -249 -52 -365 -202 -365s-203 115 -203 365zM140 358c0 -188 25 -276 107 -276c85 0 104 89 104 276s-22 275 -105 275s-106 -88 -106 -275zM304 778h-51l-116 169h87z" />
    <glyph glyph-name="Otilde" unicode="&#xd5;" horiz-adv-x="491" 
d="M43 356c0 250 53 366 203 366s202 -116 202 -366c0 -249 -52 -365 -202 -365s-203 115 -203 365zM140 358c0 -188 25 -276 107 -276c85 0 104 89 104 276s-22 275 -105 275s-106 -88 -106 -275zM363 916c-12 -74 -35 -110 -77 -110c-9 0 -18 2 -27 5l-33 12
c-10 4 -18 5 -24 5c-18 0 -28 -11 -34 -33h-39c10 72 35 107 75 107c9 0 21 -3 33 -7l34 -12c7 -2 12 -3 18 -3c19 0 30 12 35 36h39z" />
    <glyph glyph-name="Scaron" unicode="&#x160;" horiz-adv-x="385" 
d="M46 125c44 -27 82 -41 117 -41c59 0 96 37 96 94c0 69 -47 101 -117 159c-74 61 -114 114 -114 197c0 110 79 188 178 188c44 0 84 -10 125 -32v-96c-37 26 -72 39 -107 39c-61 0 -100 -39 -100 -98c0 -66 49 -100 120 -157c77 -62 112 -116 112 -199
c0 -107 -75 -188 -186 -188c-40 0 -81 12 -124 36v98zM77 947h51l65 -102l65 102h51l-74 -170h-84z" />
    <glyph glyph-name="Uacute" unicode="&#xda;" horiz-adv-x="492" 
d="M58 190v523h95v-531c0 -68 30 -100 93 -100s93 32 93 100v531h95v-523c0 -137 -57 -199 -188 -199s-188 62 -188 199zM188 778l80 169h87l-116 -169h-51z" />
    <glyph glyph-name="Ucircumflex" unicode="&#xdb;" horiz-adv-x="492" 
d="M58 190v523h95v-531c0 -68 30 -100 93 -100s93 32 93 100v531h95v-523c0 -137 -57 -199 -188 -199s-188 62 -188 199zM130 777l74 170h84l74 -170h-51l-65 103l-65 -103h-51z" />
    <glyph glyph-name="Udieresis" unicode="&#xdc;" horiz-adv-x="492" 
d="M58 190v523h95v-531c0 -68 30 -100 93 -100s93 32 93 100v531h95v-523c0 -137 -57 -199 -188 -199s-188 62 -188 199zM267 856c0 29 24 53 52 53c29 0 53 -24 53 -53s-24 -52 -53 -52s-52 23 -52 52zM119 856c0 29 24 53 52 53c29 0 53 -24 53 -53s-24 -52 -53 -52
s-52 23 -52 52z" />
    <glyph glyph-name="Ugrave" unicode="&#xd9;" horiz-adv-x="492" 
d="M58 190v523h95v-531c0 -68 30 -100 93 -100s93 32 93 100v531h95v-523c0 -137 -57 -199 -188 -199s-188 62 -188 199zM304 778h-51l-116 169h87z" />
    <glyph glyph-name="Ydieresis" unicode="&#x178;" horiz-adv-x="385" 
d="M241 303v-303h-99v303l-134 410h99l60 -199c7 -23 16 -62 25 -114c6 40 14 77 25 113l60 200h100zM214 856c0 29 24 53 52 53c29 0 53 -24 53 -53s-24 -52 -53 -52s-52 23 -52 52zM66 856c0 29 24 53 52 53c29 0 53 -24 53 -53s-24 -52 -53 -52s-52 23 -52 52z" />
    <glyph glyph-name="Zcaron" unicode="&#x17d;" horiz-adv-x="383" 
d="M9 0l231 628h-197v85h328l-229 -624h209v-89h-342zM76 947h51l65 -102l65 102h51l-74 -170h-84z" />
    <glyph glyph-name="aacute" unicode="&#xe1;" horiz-adv-x="391" 
d="M124 240c0 -112 15 -167 66 -167s66 56 66 167c0 112 -14 166 -66 166s-66 -54 -66 -166zM253 0v47c-24 -38 -54 -56 -95 -56c-80 0 -123 84 -123 249s43 248 123 248c41 0 71 -17 95 -55v46h88v-479h-88zM154 544l80 169h87l-116 -169h-51z" />
    <glyph glyph-name="acircumflex" unicode="&#xe2;" horiz-adv-x="391" 
d="M124 240c0 -112 15 -167 66 -167s66 56 66 167c0 112 -14 166 -66 166s-66 -54 -66 -166zM253 0v47c-24 -38 -54 -56 -95 -56c-80 0 -123 84 -123 249s43 248 123 248c41 0 71 -17 95 -55v46h88v-479h-88zM96 543l74 170h84l74 -170h-51l-65 103l-65 -103h-51z" />
    <glyph glyph-name="adieresis" unicode="&#xe4;" horiz-adv-x="391" 
d="M124 240c0 -112 15 -167 66 -167s66 56 66 167c0 112 -14 166 -66 166s-66 -54 -66 -166zM253 0v47c-24 -38 -54 -56 -95 -56c-80 0 -123 84 -123 249s43 248 123 248c41 0 71 -17 95 -55v46h88v-479h-88zM233 622c0 29 24 53 52 53c29 0 53 -24 53 -53s-24 -52 -53 -52
s-52 23 -52 52zM85 622c0 29 24 53 52 53c29 0 53 -24 53 -53s-24 -52 -53 -52s-52 23 -52 52z" />
    <glyph glyph-name="agrave" unicode="&#xe0;" horiz-adv-x="391" 
d="M124 240c0 -112 15 -167 66 -167s66 56 66 167c0 112 -14 166 -66 166s-66 -54 -66 -166zM253 0v47c-24 -38 -54 -56 -95 -56c-80 0 -123 84 -123 249s43 248 123 248c41 0 71 -17 95 -55v46h88v-479h-88zM270 544h-51l-116 169h87z" />
    <glyph glyph-name="aring" unicode="&#xe5;" horiz-adv-x="391" 
d="M157 627c0 -29 24 -53 53 -53s53 24 53 53c0 30 -24 53 -53 53c-30 0 -53 -23 -53 -53zM124 240c0 -112 15 -167 66 -167s66 56 66 167c0 112 -14 166 -66 166s-66 -54 -66 -166zM253 0v47c-24 -38 -54 -56 -95 -56c-80 0 -123 84 -123 249s43 248 123 248
c41 0 71 -17 95 -55v46h88v-479h-88zM101 627c0 61 48 109 109 109s110 -48 110 -109s-49 -109 -110 -109c-60 0 -109 49 -109 109z" />
    <glyph glyph-name="atilde" unicode="&#xe3;" horiz-adv-x="391" 
d="M124 240c0 -112 15 -167 66 -167s66 56 66 167c0 112 -14 166 -66 166s-66 -54 -66 -166zM253 0v47c-24 -38 -54 -56 -95 -56c-80 0 -123 84 -123 249s43 248 123 248c41 0 71 -17 95 -55v46h88v-479h-88zM329 682c-12 -74 -35 -110 -77 -110c-9 0 -18 2 -27 5l-33 12
c-10 4 -18 5 -24 5c-18 0 -28 -11 -34 -33h-39c10 72 35 107 75 107c9 0 21 -3 33 -7l34 -12c7 -2 12 -3 18 -3c19 0 30 12 35 36h39z" />
    <glyph glyph-name="ccedilla" unicode="&#xe7;" horiz-adv-x="255" 
d="M242 8c-24 -12 -47 -18 -72 -18c-98 0 -141 81 -141 249c0 165 48 249 136 249c27 0 52 -6 77 -19v-84c-16 15 -31 22 -48 22c-51 0 -76 -57 -76 -172c0 -106 24 -158 74 -158c18 0 34 7 50 21v-90zM48 -212v58c41 -14 74 -21 99 -21c29 0 44 13 44 37
c0 28 -18 39 -57 39c-5 0 -11 -1 -17 -1v100h42v-46h6c61 0 93 -32 93 -91c0 -62 -36 -96 -101 -96c-27 0 -64 6 -109 21z" />
    <glyph glyph-name="eacute" unicode="&#xe9;" horiz-adv-x="362" 
d="M327 160v-6c0 -102 -55 -163 -142 -163c-110 0 -155 80 -155 251c0 165 49 246 150 246c110 0 152 -73 152 -237v-28h-219v-14c0 -97 20 -143 71 -143c40 0 60 31 62 94h81zM113 292h134v12c0 76 -18 112 -66 112c-44 0 -68 -42 -68 -124zM123 544l80 169h87l-116 -169
h-51z" />
    <glyph glyph-name="ecircumflex" unicode="&#xea;" horiz-adv-x="362" 
d="M327 160v-6c0 -102 -55 -163 -142 -163c-110 0 -155 80 -155 251c0 165 49 246 150 246c110 0 152 -73 152 -237v-28h-219v-14c0 -97 20 -143 71 -143c40 0 60 31 62 94h81zM113 292h134v12c0 76 -18 112 -66 112c-44 0 -68 -42 -68 -124zM65 543l74 170h84l74 -170h-51
l-65 103l-65 -103h-51z" />
    <glyph glyph-name="edieresis" unicode="&#xeb;" horiz-adv-x="362" 
d="M327 160v-6c0 -102 -55 -163 -142 -163c-110 0 -155 80 -155 251c0 165 49 246 150 246c110 0 152 -73 152 -237v-28h-219v-14c0 -97 20 -143 71 -143c40 0 60 31 62 94h81zM113 292h134v12c0 76 -18 112 -66 112c-44 0 -68 -42 -68 -124zM202 622c0 29 24 53 52 53
c29 0 53 -24 53 -53s-24 -52 -53 -52s-52 23 -52 52zM54 622c0 29 24 53 52 53c29 0 53 -24 53 -53s-24 -52 -53 -52s-52 23 -52 52z" />
    <glyph glyph-name="egrave" unicode="&#xe8;" horiz-adv-x="362" 
d="M327 160v-6c0 -102 -55 -163 -142 -163c-110 0 -155 80 -155 251c0 165 49 246 150 246c110 0 152 -73 152 -237v-28h-219v-14c0 -97 20 -143 71 -143c40 0 60 31 62 94h81zM113 292h134v12c0 76 -18 112 -66 112c-44 0 -68 -42 -68 -124zM239 544h-51l-116 169h87z" />
    <glyph glyph-name="iacute" unicode="&#xed;" horiz-adv-x="200" 
d="M56 0v479h88v-479h-88zM42 544l80 169h87l-116 -169h-51z" />
    <glyph glyph-name="icircumflex" unicode="&#xee;" horiz-adv-x="200" 
d="M56 0v479h88v-479h-88zM-16 543l74 170h84l74 -170h-51l-65 103l-65 -103h-51z" />
    <glyph glyph-name="idieresis" unicode="&#xef;" horiz-adv-x="200" 
d="M56 0v479h88v-479h-88zM121 622c0 29 24 53 52 53c29 0 53 -24 53 -53s-24 -52 -53 -52s-52 23 -52 52zM-27 622c0 29 24 53 52 53c29 0 53 -24 53 -53s-24 -52 -53 -52s-52 23 -52 52z" />
    <glyph glyph-name="igrave" unicode="&#xec;" horiz-adv-x="200" 
d="M56 0v479h88v-479h-88zM158 544h-51l-116 169h87z" />
    <glyph glyph-name="ntilde" unicode="&#xf1;" horiz-adv-x="399" 
d="M55 0v479h87v-48c23 35 56 53 101 53c71 0 104 -39 104 -119v-365h-88v322c0 57 -10 84 -57 84c-39 0 -59 -25 -59 -73v-333h-88zM317 682c-12 -74 -35 -110 -77 -110c-9 0 -18 2 -27 5l-33 12c-10 4 -18 5 -24 5c-18 0 -28 -11 -34 -33h-39c10 72 35 107 75 107
c9 0 21 -3 33 -7l34 -12c7 -2 12 -3 18 -3c19 0 30 12 35 36h39z" />
    <glyph glyph-name="oacute" unicode="&#xf3;" horiz-adv-x="383" 
d="M30 240c0 163 57 248 161 248s161 -85 161 -248c0 -164 -57 -249 -161 -249s-161 85 -161 249zM119 241c0 -114 21 -169 72 -169s73 55 73 169s-22 169 -73 169s-72 -55 -72 -169zM134 544l80 169h87l-116 -169h-51z" />
    <glyph glyph-name="ocircumflex" unicode="&#xf4;" horiz-adv-x="383" 
d="M30 240c0 163 57 248 161 248s161 -85 161 -248c0 -164 -57 -249 -161 -249s-161 85 -161 249zM119 241c0 -114 21 -169 72 -169s73 55 73 169s-22 169 -73 169s-72 -55 -72 -169zM76 543l74 170h84l74 -170h-51l-65 103l-65 -103h-51z" />
    <glyph glyph-name="odieresis" unicode="&#xf6;" horiz-adv-x="383" 
d="M30 240c0 163 57 248 161 248s161 -85 161 -248c0 -164 -57 -249 -161 -249s-161 85 -161 249zM119 241c0 -114 21 -169 72 -169s73 55 73 169s-22 169 -73 169s-72 -55 -72 -169zM213 622c0 29 24 53 52 53c29 0 53 -24 53 -53s-24 -52 -53 -52s-52 23 -52 52zM65 622
c0 29 24 53 52 53c29 0 53 -24 53 -53s-24 -52 -53 -52s-52 23 -52 52z" />
    <glyph glyph-name="ograve" unicode="&#xf2;" horiz-adv-x="383" 
d="M30 240c0 163 57 248 161 248s161 -85 161 -248c0 -164 -57 -249 -161 -249s-161 85 -161 249zM119 241c0 -114 21 -169 72 -169s73 55 73 169s-22 169 -73 169s-72 -55 -72 -169zM250 544h-51l-116 169h87z" />
    <glyph glyph-name="otilde" unicode="&#xf5;" horiz-adv-x="383" 
d="M30 240c0 163 57 248 161 248s161 -85 161 -248c0 -164 -57 -249 -161 -249s-161 85 -161 249zM119 241c0 -114 21 -169 72 -169s73 55 73 169s-22 169 -73 169s-72 -55 -72 -169zM309 682c-12 -74 -35 -110 -77 -110c-9 0 -18 2 -27 5l-33 12c-10 4 -18 5 -24 5
c-18 0 -28 -11 -34 -33h-39c10 72 35 107 75 107c9 0 21 -3 33 -7l34 -12c7 -2 12 -3 18 -3c19 0 30 12 35 36h39z" />
    <glyph glyph-name="scaron" unicode="&#x161;" horiz-adv-x="273" 
d="M28 101c24 -21 48 -32 74 -32c38 0 63 25 63 59s-25 54 -58 86c-49 46 -79 81 -79 138c0 80 54 137 133 137c27 0 52 -7 76 -20v-90c-19 22 -41 32 -70 32c-32 0 -56 -23 -56 -55c0 -37 26 -55 60 -87c50 -46 77 -84 77 -144c0 -81 -53 -134 -136 -134
c-27 0 -55 6 -84 18v92zM21 713h51l65 -102l65 102h51l-74 -170h-84z" />
    <glyph glyph-name="uacute" unicode="&#xfa;" horiz-adv-x="399" 
d="M53 141v338h88v-343c0 -44 20 -67 58 -67s58 23 58 67v343h89v-338c0 -105 -44 -150 -147 -150s-146 45 -146 150zM142 544l80 169h87l-116 -169h-51z" />
    <glyph glyph-name="ucircumflex" unicode="&#xfb;" horiz-adv-x="399" 
d="M53 141v338h88v-343c0 -44 20 -67 58 -67s58 23 58 67v343h89v-338c0 -105 -44 -150 -147 -150s-146 45 -146 150zM84 543l74 170h84l74 -170h-51l-65 103l-65 -103h-51z" />
    <glyph glyph-name="udieresis" unicode="&#xfc;" horiz-adv-x="399" 
d="M53 141v338h88v-343c0 -44 20 -67 58 -67s58 23 58 67v343h89v-338c0 -105 -44 -150 -147 -150s-146 45 -146 150zM221 622c0 29 24 53 52 53c29 0 53 -24 53 -53s-24 -52 -53 -52s-52 23 -52 52zM73 622c0 29 24 53 52 53c29 0 53 -24 53 -53s-24 -52 -53 -52
s-52 23 -52 52z" />
    <glyph glyph-name="ugrave" unicode="&#xf9;" horiz-adv-x="399" 
d="M53 141v338h88v-343c0 -44 20 -67 58 -67s58 23 58 67v343h89v-338c0 -105 -44 -150 -147 -150s-146 45 -146 150zM258 544h-51l-116 169h87z" />
    <glyph glyph-name="ydieresis" unicode="&#xff;" horiz-adv-x="328" 
d="M13 479h91l56 -314l76 314h87l-193 -672h-91l74 235zM185 622c0 29 24 53 52 53c29 0 53 -24 53 -53s-24 -52 -53 -52s-52 23 -52 52zM37 622c0 29 24 53 52 53c29 0 53 -24 53 -53s-24 -52 -53 -52s-52 23 -52 52z" />
    <glyph glyph-name="zcaron" unicode="&#x17e;" horiz-adv-x="330" 
d="M13 0l178 402h-167v77h293l-179 -400h165v-79h-290zM49 713h51l65 -102l65 102h51l-74 -170h-84z" />
    <glyph glyph-name="trademark" unicode="&#x2122;" horiz-adv-x="833" 
d="M339 711v-33h-84v-228h-46v228h-85v33h215zM463 711l78 -198l73 198h64v-261h-40v224l-84 -224h-26l-88 224v-224h-40v261h63z" />
    <glyph glyph-name="copyright" unicode="&#xa9;" horiz-adv-x="833" 
d="M416 713c97 0 187 -36 256 -105c67 -67 103 -157 103 -254c0 -98 -36 -186 -103 -252c-71 -69 -162 -107 -256 -107c-95 0 -183 37 -252 106s-106 158 -106 253s38 185 107 255c66 67 154 104 251 104zM733 354c0 85 -33 165 -92 224c-60 60 -139 92 -225 92
s-163 -32 -221 -91c-61 -62 -94 -142 -94 -225s33 -161 93 -222c60 -60 138 -93 222 -93c83 0 164 33 226 94c59 58 91 135 91 221zM520 445c-10 51 -49 80 -102 80c-75 0 -121 -61 -121 -172c0 -107 48 -168 121 -168c56 0 97 33 107 89h63c-7 -83 -77 -140 -173 -140
c-113 0 -188 83 -188 218c0 138 78 223 193 223c90 0 156 -54 163 -130h-63z" />
    <glyph glyph-name="logicalnot" unicode="&#xac;" horiz-adv-x="833" 
d="M709 419v-245h-56v188h-529v57h585z" />
    <glyph glyph-name="registered" unicode="&#xae;" horiz-adv-x="833" 
d="M416 713c98 0 187 -37 256 -106c67 -67 103 -157 103 -253c0 -98 -36 -186 -104 -252c-71 -69 -161 -107 -255 -107c-95 0 -184 38 -253 107c-68 68 -105 157 -105 252s38 186 108 256c66 67 153 103 250 103zM733 352c0 86 -32 166 -91 225c-61 61 -139 93 -226 93
c-85 0 -162 -31 -220 -90c-62 -62 -95 -142 -95 -226c0 -83 33 -161 93 -222s139 -93 221 -93c85 0 164 32 226 93c59 58 92 135 92 220zM426 565c114 0 171 -36 171 -113c0 -57 -36 -99 -96 -109l92 -188h-77l-86 178h-87v-178h-69v410h152zM413 520h-70v-142h72
c76 0 111 17 111 69c0 53 -36 73 -113 73z" />
    <glyph glyph-name="minus" unicode="&#x2212;" horiz-adv-x="833" 
d="M709 327v-58h-585v58h585z" />
    <glyph glyph-name="Eth" unicode="&#xd0;" horiz-adv-x="499" 
d="M69 0v357h-69v79h69v277h127c195 0 264 -96 264 -356c0 -261 -69 -357 -264 -357h-127zM165 92h50c113 0 147 76 147 266s-34 265 -147 265h-50v-187h88v-79h-88v-265z" />
    <glyph glyph-name="Thorn" unicode="&#xde;" horiz-adv-x="438" 
d="M160 172v-172h-96v713h96v-144l21 1c10 1 19 1 28 1c126 0 202 -75 202 -202c0 -129 -76 -198 -223 -198c-9 0 -18 0 -28 1zM160 258h36c84 0 119 30 119 115c0 83 -39 113 -126 113h-29v-228z" />
    <glyph glyph-name="Yacute" unicode="&#xdd;" horiz-adv-x="385" 
d="M241 303v-303h-99v303l-134 410h99l60 -199c7 -23 16 -62 25 -114c6 40 14 77 25 113l60 200h100zM135 778l80 169h87l-116 -169h-51z" />
    <glyph glyph-name="brokenbar" unicode="&#xa6;" 
d="M281 699v-370h-62v370h62zM281 199v-370h-62v370h62z" />
    <glyph glyph-name="degree" unicode="&#xb0;" horiz-adv-x="329" 
d="M165 710c76 0 138 -62 138 -138c0 -75 -61 -138 -139 -138c-77 0 -137 61 -137 138c0 78 62 138 138 138zM263 572c0 54 -43 98 -98 98c-54 0 -99 -43 -99 -98c0 -56 45 -99 99 -99c56 0 98 45 98 99z" />
    <glyph glyph-name="divide" unicode="&#xf7;" horiz-adv-x="833" 
d="M417 530c31 0 56 -25 56 -56c0 -30 -24 -56 -56 -56s-56 25 -56 56s26 56 56 56zM709 327v-57h-585v57h585zM417 178c30 0 56 -25 56 -56c0 -30 -24 -56 -56 -56c-31 0 -56 25 -56 56c0 32 26 56 56 56z" />
    <glyph glyph-name="eth" unicode="&#xf0;" horiz-adv-x="383" 
d="M241 436c-15 41 -38 89 -72 143l-84 -38l-24 42l79 38c-18 28 -40 56 -65 85l62 37c25 -29 49 -60 72 -92l82 39l27 -43l-81 -39c80 -122 115 -242 115 -383c0 -154 -57 -234 -161 -234c-103 0 -161 81 -161 235c0 152 62 235 148 235c21 0 42 -9 63 -25zM119 227
c0 -104 22 -154 72 -154s73 50 73 154s-23 155 -73 155c-51 0 -72 -51 -72 -155z" />
    <glyph glyph-name="mu" unicode="&#xb5;" horiz-adv-x="551" 
d="M177 522l-62 -291c-5 -22 -7 -44 -7 -67c0 -70 38 -111 106 -111c82 0 135 66 164 200l59 269h76l-79 -368c-7 -31 -11 -53 -11 -66c0 -21 12 -32 35 -32c2 0 8 0 17 1l-13 -61c-17 -4 -33 -5 -45 -5c-46 0 -67 22 -71 72c-26 -45 -78 -72 -141 -72c-56 0 -99 22 -128 67
l-55 -266h-76l154 730h77z" />
    <glyph glyph-name="multiply" unicode="&#xd7;" horiz-adv-x="833" 
d="M419 338l232 233l40 -40l-232 -233l232 -232l-40 -40l-232 232l-233 -232l-39 40l232 232l-232 233l39 40z" />
    <glyph glyph-name="onehalf" unicode="&#xbd;" horiz-adv-x="652" 
d="M99 313v351h-55v48h111v-399h-56zM76 -9l433 731h67l-433 -731h-67zM420 0l120 212c21 37 31 68 31 94c0 35 -13 52 -41 52c-32 0 -43 -24 -43 -75v-14h-56c-1 7 -1 14 -1 21c0 76 35 114 103 114c61 0 100 -36 100 -98c0 -42 -18 -80 -45 -125l-80 -130h116v-51h-204z
" />
    <glyph glyph-name="onequarter" unicode="&#xbc;" horiz-adv-x="652" 
d="M99 313v351h-55v48h111v-399h-56zM76 -9l433 731h67l-433 -731h-67zM544 0v109h-121v51l126 239h52v-246h32v-44h-32v-109h-57zM545 153v158l-80 -158h80z" />
    <glyph glyph-name="onesuperior" unicode="&#xb9;" horiz-adv-x="254" 
d="M104 285v376h-58v52h117v-428h-59z" />
    <glyph glyph-name="plusminus" unicode="&#xb1;" horiz-adv-x="833" 
d="M446 576v-168h263v-57h-263v-168h-58v168h-264v57h264v168h58zM709 77v-57h-585v57h585z" />
    <glyph glyph-name="thorn" unicode="&#xfe;" horiz-adv-x="391" 
d="M138 48v-241h-88v950h88v-324c24 38 54 55 95 55c85 0 123 -82 123 -248s-37 -248 -123 -248c-41 0 -71 18 -95 56zM135 240c0 -111 14 -166 66 -166c51 0 66 54 66 166s-15 166 -66 166c-52 0 -66 -55 -66 -166z" />
    <glyph glyph-name="threequarters" unicode="&#xbe;" horiz-adv-x="652" 
d="M13 417h53v-9c0 -35 16 -52 47 -52c34 0 48 23 48 69c0 57 -12 75 -75 75h-9v44c7 -1 14 -1 19 -1c51 0 60 18 60 72c0 40 -12 59 -39 59c-32 0 -43 -22 -44 -69h-52v17c0 64 31 95 93 95c67 0 100 -35 100 -108c0 -51 -17 -79 -54 -87c45 -7 60 -35 60 -91
c0 -84 -32 -123 -112 -123c-63 0 -95 32 -95 100v9zM76 -9l433 731h67l-433 -731h-67zM544 0v109h-121v51l126 239h52v-246h32v-44h-32v-109h-57zM545 153v158l-80 -158h80z" />
    <glyph glyph-name="threesuperior" unicode="&#xb3;" horiz-adv-x="254" 
d="M14 397h55v-11c0 -36 17 -55 49 -55c36 0 50 24 50 74c0 61 -12 80 -78 80h-9v47h20c53 0 62 19 62 77c0 42 -13 62 -40 62c-34 0 -45 -22 -46 -73h-55v18c0 69 32 102 97 102c71 0 105 -38 105 -116c0 -55 -18 -85 -56 -93c47 -7 62 -38 62 -97
c0 -90 -33 -132 -116 -132c-67 0 -100 34 -100 106v11z" />
    <glyph glyph-name="twosuperior" unicode="&#xb2;" horiz-adv-x="254" 
d="M11 285l125 227c22 39 33 73 33 101c0 37 -14 55 -43 55c-34 0 -45 -25 -45 -79v-15h-59c-1 7 -1 14 -1 21c0 82 36 123 108 123c64 0 105 -38 105 -105c0 -45 -19 -86 -48 -134l-84 -139h122v-55h-213z" />
    <glyph glyph-name="yacute" unicode="&#xfd;" horiz-adv-x="328" 
d="M13 479h91l56 -314l76 314h87l-193 -672h-91l74 235zM106 544l80 169h87l-116 -169h-51z" />
    </font>
</defs>
</svg>
